# xmcd
#
# Track frame offsets: 
#        150
#        19727
#        37780
#        54222
#        70376
#        96722
#        111819
#        130172
#        149521
#        163426
#        182339
#        201683
#        218786
#        242808
#
# Disc length: 3491 seconds
#
# Revision: 2
# Processed by: cddbd v1.5.2PL0 Copyright (c) Steve Scherf et al.
# Submitted via: ExactAudioCopy v0.99pb5
#
DISCID=d40da10e
DTITLE=Skladanka - Zlota Trojka CD2 1987 - 1991
DYEAR=2007
DGENRE=Rock
TTITLE0=Queen - The Show Must Go On `91
TTITLE1=Tina Turner - Break Every Rule `87
TTITLE2=Obywatel G. C. - Tak... Tak... To Ja `88
TTITLE3=Beverley Creaven - Promise Me`90
TTITLE4=Robert Palmer - Mercy Mercy Me (I Want You) `91
TTITLE5=Sztywny Pal Azji - Spotkanie Z... `87
TTITLE6=Richard Marx - Right Here Waiting `89
TTITLE7=Roxette - It Must Have Been Love `90
TTITLE8=Czad Komando Tilt - Jeszcze Bedzie Przepieknie `89
TTITLE9=Belinda Carlisle - La Luna `90
TTITLE10=Lady Pank - Tacy Sami `87
TTITLE11=Suzanne Vega and D.N.A. - Tom's Diner `90
TTITLE12=Roze Europy - Stancie Przed Lustrami `87
TTITLE13=Enigma - Sadeness Part I `90
EXTD=YEAR: 2007
EXTT0=
EXTT1=
EXTT2=
EXTT3=
EXTT4=
EXTT5=
EXTT6=
EXTT7=
EXTT8=
EXTT9=
EXTT10=
EXTT11=
EXTT12=
EXTT13=
PLAYORDER=
